#N canvas 136 221 902 787 10;
#N canvas 0 23 450 300 midi 0;
#X restore 299 487 pd midi;
#X obj 317 175 oscparse;
#X msg 328 99 listen 3334;
#X obj 318 145 netreceive -u -b;
#X obj 241 222 unpack 0 0 0 0 s s 0 0;
#X floatatom 251 276 5 0 0 0 - - -, f 5;
#X floatatom 302 276 5 0 0 0 - - -, f 5;
#X floatatom 352 279 5 0 0 0 - - -, f 5;
#X floatatom 408 285 5 0 0 0 - - -, f 5;
#X floatatom 549 285 5 0 0 0 - - -, f 5;
#X floatatom 457 284 5 0 0 0 - - -, f 5;
#X connect 1 0 4 0;
#X connect 2 0 3 0;
#X connect 3 0 1 0;
#X connect 4 0 5 0;
#X connect 4 1 6 0;
#X connect 4 2 7 0;
#X connect 4 3 8 0;
#X connect 4 6 10 0;
#X connect 4 7 9 0;
