#N canvas 0 37 1223 891 10;
#X obj 146 135 bng 24 250 50 0 empty empty empty 17 7 0 10 #fcfcfc #000000 #000000;
#X obj 30 209 unpack f f f f s s f f;
#X obj 30 261 nbx 5 14 -1e+37 1e+37 0 0 empty empty direction 0 -8 0 10 #fcfcfc #000000 #000000 0 256;
#X obj 95 261 nbx 5 14 -1e+37 1e+37 0 0 empty empty pkt_len 0 -8 0 10 #fcfcfc #000000 #000000 0 256;
#X obj 160 261 nbx 5 14 -1e+37 1e+37 0 0 empty empty sport 0 -8 0 10 #fcfcfc #000000 #000000 0 256;
#X obj 223 261 nbx 5 14 -1e+37 1e+37 0 0 empty empty dport 0 -8 0 10 #fcfcfc #000000 #000000 0 256;
#X obj 290 261 symbolatom 8 14 0 0 0 0 - - - 0;
#X obj 367 261 symbolatom 8 14 0 0 0 0 - - - 0;
#X obj 445 261 nbx 5 14 -1e+37 1e+37 0 0 empty empty dst_IP 0 -8 0 10 #fcfcfc #000000 #000000 0 256;
#X obj 507 261 nbx 5 14 -1e+37 1e+37 0 0 empty empty src_IP 0 -8 0 10 #fcfcfc #000000 #000000 0 256;
#X obj 61 316 msg 1;
#X obj 579 282 msg 1;
#X obj 95 367 adsr~ 2 100 0 300;
#X floatatom 138 333 5 0 0 0 - - - 0;
#X floatatom 201 333 5 0 0 0 - - - 0;
#X floatatom 264 333 5 0 0 0 - - - 0;
#X floatatom 264 378 5 0 0 0 - - - 0;
#X obj 65 433 tri~ 100;
#X obj 65 463 *~;
#X obj 65 499 lop~ 400;
#X obj 568 411 adsr~ 2 100 0 300;
#X floatatom 611 348 5 0 0 0 - - - 0;
#X floatatom 670 343 5 0 0 0 - - - 0;
#X floatatom 722 343 5 0 0 0 - - - 0;
#X floatatom 784 348 5 0 0 0 - - - 0;
#X obj 445 327 / 255;
#X obj 445 357 * 600;
#X obj 445 398 + 1;
#X floatatom 445 437 5 0 0 0 - - - 0;
#X obj 326 327 / 54000;
#X obj 326 357 * 800;
#X obj 326 398 + 100;
#X obj 269 478 osc~ 300;
#X obj 205 493 +~;
#X floatatom 166 459 5 0 0 0 - - - 0;
#X obj 445 550 vcf~ 50 0.7;
#X floatatom 545 485 5 0 0 0 - - - 0;
#X floatatom 466 485 5 0 0 0 - - - 0;
#X obj 65 563 hip~ 5;
#X obj 65 623 dac~;
#X obj 138 563 hip~ 5;
#X obj 215 584 hip~ 5;
#X obj 300 526 *~;
#X obj 635 450 - 50;
#X floatatom 638 485 5 0 0 0 - - - 0;
#X obj 611 540 osc~ 10;
#X obj 499 622 / 54000;
#X obj 499 652 * 300;
#X obj 499 693 + 20;
#X obj 579 683 msg 0.5 \, 1 1 0.5 6 0 200;
#X obj 499 742 phasor~;
#X obj 579 796 *~;
#X obj 635 796 adsr~ 2 100 0 300;
#X floatatom 796 768 5 0 0 0 - - - 0;
#X floatatom 827 816 5 0 0 0 - - - 0;
#X obj 648 833 adsr~ 0 100 0 400;
#X obj 627 900 *~;
#X obj 717 886 osc~ 300;
#X obj 540 906 lop~;
#X obj 432 816 hip~ 5;
#X obj 337 683 hip~ 5;
#X obj 269 661 hip~ 5;
#X obj 796 906 osc~ 300;
#X obj 1058 192 tgl 24 0 empty empty empty 17 7 0 10 #fcfcfc #000000 #000000 0 1;
#X floatatom 1097 192 5 0 0 0 - - - 0;
#X obj 1058 224 metro 500;
#X obj 1058 257 s mclk;
#X obj 1008 322 r mclk;
#X obj 872 352 counter 1 100;
#X obj 872 396 sel 1 3 5 7 9;
#X obj 822 502 bng 24 250 50 0 empty empty empty 17 7 0 10 #fcfcfc #000000 #000000;
#X obj 725 434 nbx 5 14 -1e+37 1e+37 0 0 empty empty empty 0 -8 0 10 #fcfcfc #000000 #000000 0 256;
#X obj 725 467 meany;
#X floatatom 725 502 5 0 0 0 - - - 0;
#X obj 665 584 + 300;
#X obj 712 635 tri~ 303;
#X obj 712 665 *~;
#X obj 729 577 msg 0 \, 0.25 2 0 300;
#X obj 777 635 line~;
#X obj 684 749 +~;
#X obj 886 656 noise~;
#X obj 841 573 msg 0 \, 0.25 2 0 100;
#X obj 951 610 line~;
#X obj 865 724 *~;
#X obj 822 683 lop~ 1047;
#X obj 1021 443 bng 24 250 50 0 empty empty empty 17 7 0 10 #fcfcfc #000000 #000000;
#X msg 964 517 4698 \, 246.94 10 65.41 290;
#X obj 1021 557 line~;
#X obj 1017 595 rect~ 0.5;
#X obj 1065 595 osc~ 600;
#X obj 1021 629 +~;
#X obj 1138 517 msg 0.5 \, 1 1 0.5 6 0 150;
#X obj 1159 550 msg 0.5 \, 1 1 0.5 6 0 200;
#X obj 1190 584 msg 0.5 \, 1 1 0.5 6 0 100;
#X obj 1198 629 msg 0.5 \, 1 1 0.5 10 0 300;
#X obj 1103 665 line~;
#X obj 1093 731 *~;
#X obj 713 235 msg 0 0.8 50 1 30 0 100;
#X obj 717 266 line~;
#X obj 30 126 oscparse;
#X msg 35 47 listen 3334;
#X obj 30 88 netreceive -u -b;
#X connect 0 0 10 0;
#X connect 0 0 11 0;
#X connect 1 0 2 0;
#X connect 1 1 3 0;
#X connect 1 2 4 0;
#X connect 1 3 5 0;
#X connect 1 4 6 0;
#X connect 1 5 7 0;
#X connect 1 6 8 0;
#X connect 1 7 9 0;
#X connect 3 0 75 0;
#X connect 4 0 48 0;
#X connect 5 0 30 0;
#X connect 8 0 25 0;
#X connect 8 0 44 0;
#X connect 9 0 77 0;
#X connect 10 0 12 0;
#X connect 11 0 20 0;
#X connect 11 0 54 0;
#X connect 11 0 73 0;
#X connect 12 0 18 1;
#X connect 13 0 12 1;
#X connect 14 0 12 2;
#X connect 15 0 12 3;
#X connect 16 0 12 4;
#X connect 17 0 18 0;
#X connect 18 0 19 0;
#X connect 19 0 38 0;
#X connect 20 0 43 1;
#X connect 21 0 20 1;
#X connect 22 0 20 2;
#X connect 23 0 20 3;
#X connect 24 0 20 4;
#X connect 25 0 26 0;
#X connect 26 0 27 0;
#X connect 27 0 28 0;
#X connect 28 0 17 0;
#X connect 29 0 30 0;
#X connect 30 0 31 0;
#X connect 31 0 32 0;
#X connect 32 0 43 0;
#X connect 34 0 19 1;
#X connect 35 0 34 0;
#X connect 35 0 37 0;
#X connect 36 0 40 0;
#X connect 38 0 39 0;
#X connect 40 0 39 0;
#X connect 41 0 39 1;
#X connect 42 0 36 0;
#X connect 43 0 42 1;
#X connect 44 0 45 0;
#X connect 45 0 46 0;
#X connect 46 0 50 0;
#X connect 47 0 52 0;
#X connect 48 0 49 0;
#X connect 49 0 51 0;
#X connect 50 0 51 0;
#X connect 51 0 59 0;
#X connect 52 0 51 1;
#X connect 53 0 57 0;
#X connect 54 0 52 1;
#X connect 56 0 58 0;
#X connect 56 0 64 0;
#X connect 57 0 58 1;
#X connect 58 0 39 1;
#X connect 59 0 60 0;
#X connect 60 0 39 0;
#X connect 60 0 39 1;
#X connect 61 0 39 0;
#X connect 61 0 39 1;
#X connect 62 0 39 0;
#X connect 62 0 39 1;
#X connect 63 0 39 0;
#X connect 63 0 39 1;
#X connect 64 0 39 0;
#X connect 64 0 39 1;
#X connect 65 0 68 0;
#X connect 67 0 65 0;
#X connect 67 0 70 0;
#X connect 70 0 71 0;
#X connect 72 0 73 0;
#X connect 73 0 74 0;
#X connect 74 0 75 0;
#X connect 74 0 83 0;
#X connect 75 0 76 0;
#X connect 76 0 77 0;
#X connect 77 0 78 0;
#X connect 78 0 81 0;
#X connect 80 0 83 0;
#X connect 81 0 80 0;
#X connect 82 0 81 1;
#X connect 83 0 63 0;
#X connect 84 0 88 0;
#X connect 85 0 86 0;
#X connect 86 0 84 1;
#X connect 87 0 84 0;
#X connect 88 0 80 0;
#X connect 89 0 90 0;
#X connect 89 0 94 0;
#X connect 90 0 91 0;
#X connect 91 0 92 0;
#X connect 92 0 94 0;
#X connect 93 0 94 1;
#X connect 94 0 98 0;
#X connect 95 0 96 0;
#X connect 96 0 97 0;
#X connect 97 0 98 1;
#X connect 98 0 61 0;
#X connect 99 0 0 0;
#X connect 99 0 1 0;
#X connect 100 0 101 0;
#X connect 101 0 99 0;
